<?xml version="1.0" standalone="no"?>
<!DOCTYPE svg PUBLIC "-//W3C//DTD SVG 20010904//EN"
 "http://www.w3.org/TR/2001/REC-SVG-20010904/DTD/svg10.dtd">
<svg version="1.0" xmlns="http://www.w3.org/2000/svg"
 width="300.000000pt" height="300.000000pt" viewBox="0 0 300.000000 300.000000"
 preserveAspectRatio="xMidYMid meet">
<metadata>
Created by potrace 1.11, written by Peter Selinger 2001-2013
</metadata>
<g transform="translate(0.000000,300.000000) scale(0.100000,-0.100000)"
fill="#000000" stroke="none">
<path d="M1398 2933 c-40 -11 -48 -18 -66 -60 -17 -41 -67 -200 -142 -453 -27
-91 -182 -610 -285 -955 -48 -159 -90 -300 -92 -312 -5 -22 -9 -23 -122 -24
-172 -1 -168 1 -199 -92 -82 -246 -264 -857 -266 -892 -4 -56 11 -86 49 -97
32 -9 2402 -12 2445 -4 14 3 33 16 43 28 26 32 18 93 -38 274 -26 82 -87 280
-136 439 -50 160 -97 300 -105 312 -18 29 -35 33 -174 36 l-115 2 -106 355
c-58 195 -113 380 -122 410 -9 30 -46 154 -82 275 -66 221 -78 263 -155 520
-53 175 -74 220 -108 234 -41 17 -172 20 -224 4z"/>
</g>
</svg>
